<svg version="1.1" viewBox="0.0 0.0 792.0 178.0" fill="none" stroke="none" stroke-linecap="square" stroke-miterlimit="10" xmlns:xlink="http://www.w3.org/1999/xlink" xmlns="http://www.w3.org/2000/svg"><clipPath id="p.0"><path d="m0 0l792.0 0l0 178.0l-792.0 0l0 -178.0z" clip-rule="nonzero"/></clipPath><g clip-path="url(#p.0)"><path fill="#000000" fill-opacity="0.0" d="m0 0l792.0 0l0 178.0l-792.0 0z" fill-rule="evenodd"/><path fill="#000000" fill-opacity="0.0" d="m185.91077 82.23622l0 0c0 -20.230148 16.399765 -36.62992 36.629913 -36.62992l0 0c9.714859 0 19.03183 3.859211 25.901276 10.728653c6.8694305 6.869446 10.728638 16.186409 10.728638 25.901268l0 0c0 20.230148 -16.399765 36.62992 -36.629913 36.62992l0 0c-20.230148 0 -36.629913 -16.399773 -36.629913 -36.62992z" fill-rule="evenodd"/><path stroke="#000000" stroke-width="2.0" stroke-linejoin="round" stroke-linecap="butt" d="m185.91077 82.23622l0 0c0 -20.230148 16.399765 -36.62992 36.629913 -36.62992l0 0c9.714859 0 19.03183 3.859211 25.901276 10.728653c6.8694305 6.869446 10.728638 16.186409 10.728638 25.901268l0 0c0 20.230148 -16.399765 36.62992 -36.629913 36.62992l0 0c-20.230148 0 -36.629913 -16.399773 -36.629913 -36.62992z" fill-rule="evenodd"/><path fill="#000000" d="m208.9363 89.421844q-1.34375 0 -2.25 -0.46875q-0.890625 -0.484375 -0.890625 -1.265625q0 -0.359375 0.265625 -0.671875q0.265625 -0.328125 0.640625 -0.328125q0.375 0 0.59375 0.171875q0.21875 0.171875 0.34375 0.390625q0.140625 0.234375 0.234375 0.5625q0.109375 0.328125 0.1875 0.546875q0.140625 0.15625 0.375 0.296875q0.25 0.125 0.703125 0.125q0.984375 0 1.484375 -0.484375q0.515625 -0.5 0.515625 -1.34375q0 -0.625 -0.484375 -0.984375q-0.46875 -0.375 -1.40625 -0.6875q-0.34375 -0.109375 -0.796875 -0.328125q-0.453125 -0.21875 -0.71875 -0.484375q-0.328125 -0.28125 -0.53125 -0.6875q-0.203125 -0.40625 -0.203125 -0.953125q0 -1.15625 1.03125 -2.0q1.046875 -0.859375 2.578125 -0.859375q0.34375 0 0.75 0.03125q0.421875 0.03125 0.90625 0.203125q0.4375 0.140625 0.734375 0.4375q0.296875 0.28125 0.296875 0.734375q0 0.375 -0.25 0.6875q-0.25 0.296875 -0.65625 0.296875q-0.34375 0 -0.5625 -0.140625q-0.21875 -0.15625 -0.359375 -0.390625q-0.140625 -0.25 -0.234375 -0.53125q-0.09375 -0.28125 -0.203125 -0.5625q-0.171875 -0.0625 -0.3125 -0.09375q-0.125 -0.03125 -0.359375 -0.03125q-0.890625 0 -1.359375 0.484375q-0.453125 0.46875 -0.453125 1.125q0 0.640625 0.40625 0.96875q0.421875 0.328125 1.375 0.671875q1.25 0.4375 1.796875 1.015625q0.5625 0.578125 0.5625 1.421875q0 1.390625 -1.0625 2.265625q-1.0625 0.859375 -2.6875 0.859375zm15.731186 -6.609375q0 1.296875 -0.484375 2.515625q-0.46875 1.203125 -1.265625 2.09375q-0.859375 0.9375 -1.953125 1.484375q-1.09375 0.546875 -2.5 0.546875q-1.828125 0 -2.859375 -1.046875q-1.015625 -1.046875 -1.015625 -2.625q0 -1.375 0.46875 -2.578125q0.484375 -1.21875 1.328125 -2.140625q0.828125 -0.921875 1.96875 -1.4375q1.15625 -0.53125 2.421875 -0.53125q1.875 0 2.875 1.078125q1.015625 1.078125 1.015625 2.640625zm-1.953125 -0.421875q0 -1.28125 -0.546875 -1.9375q-0.546875 -0.671875 -1.515625 -0.671875q-1.0 0 -1.8125 0.609375q-0.796875 0.609375 -1.34375 1.71875q-0.46875 0.953125 -0.71875 2.0625q-0.25 1.09375 -0.25 2.0q0 1.21875 0.53125 1.90625q0.53125 0.6875 1.546875 0.6875q0.953125 0 1.734375 -0.5625q0.796875 -0.5625 1.40625 -1.765625q0.515625 -1.0 0.734375 -2.078125q0.234375 -1.09375 0.234375 -1.96875z" fill-rule="nonzero"/><path fill="#000000" fill-opacity="0.0" d="m427.58267 82.23622l0 0c0 -20.230148 16.39978 -36.62992 36.629913 -36.62992l0 0c9.714874 0 19.03183 3.859211 25.901276 10.728653c6.869446 6.869446 10.728668 16.186409 10.728668 25.901268l0 0c0 20.230148 -16.39978 36.62992 -36.629944 36.62992l0 0c-20.230133 0 -36.629913 -16.399773 -36.629913 -36.62992z" fill-rule="evenodd"/><path stroke="#000000" stroke-width="2.0" stroke-linejoin="round" stroke-linecap="butt" d="m427.58267 82.23622l0 0c0 -20.230148 16.39978 -36.62992 36.629913 -36.62992l0 0c9.714874 0 19.03183 3.859211 25.901276 10.728653c6.869446 6.869446 10.728668 16.186409 10.728668 25.901268l0 0c0 20.230148 -16.39978 36.62992 -36.629944 36.62992l0 0c-20.230133 0 -36.629913 -16.399773 -36.629913 -36.62992z" fill-rule="evenodd"/><path fill="#000000" d="m450.60822 89.421844q-1.34375 0 -2.25 -0.46875q-0.890625 -0.484375 -0.890625 -1.265625q0 -0.359375 0.265625 -0.671875q0.265625 -0.328125 0.640625 -0.328125q0.375 0 0.59375 0.171875q0.21875 0.171875 0.34375 0.390625q0.140625 0.234375 0.234375 0.5625q0.109375 0.328125 0.1875 0.546875q0.140625 0.15625 0.375 0.296875q0.25 0.125 0.703125 0.125q0.984375 0 1.484375 -0.484375q0.515625 -0.5 0.515625 -1.34375q0 -0.625 -0.484375 -0.984375q-0.46875 -0.375 -1.40625 -0.6875q-0.34375 -0.109375 -0.796875 -0.328125q-0.453125 -0.21875 -0.71875 -0.484375q-0.328125 -0.28125 -0.53125 -0.6875q-0.203125 -0.40625 -0.203125 -0.953125q0 -1.15625 1.03125 -2.0q1.046875 -0.859375 2.578125 -0.859375q0.34375 0 0.75 0.03125q0.421875 0.03125 0.90625 0.203125q0.4375 0.140625 0.734375 0.4375q0.296875 0.28125 0.296875 0.734375q0 0.375 -0.25 0.6875q-0.25 0.296875 -0.65625 0.296875q-0.34375 0 -0.5625 -0.140625q-0.21875 -0.15625 -0.359375 -0.390625q-0.140625 -0.25 -0.234375 -0.53125q-0.09375 -0.28125 -0.203125 -0.5625q-0.171875 -0.0625 -0.3125 -0.09375q-0.125 -0.03125 -0.359375 -0.03125q-0.890625 0 -1.359375 0.484375q-0.453125 0.46875 -0.453125 1.125q0 0.640625 0.40625 0.96875q0.421875 0.328125 1.375 0.671875q1.25 0.4375 1.796875 1.015625q0.5625 0.578125 0.5625 1.421875q0 1.390625 -1.0625 2.265625q-1.0625 0.859375 -2.6875 0.859375zm11.262421 -10.328125q-0.1875 0.6875 -0.421875 1.5625q-0.21875 0.875 -0.296875 1.234375l-1.265625 5.453125q-0.015625 0.078125 -0.03125 0.15625q0 0.078125 0 0.15625q0 0.234375 0.109375 0.390625q0.109375 0.15625 0.265625 0.234375q0.1875 0.09375 0.6875 0.171875q0.515625 0.078125 0.828125 0.109375l-0.15625 0.59375l-6.140625 0l0.15625 -0.59375q0.28125 -0.03125 0.859375 -0.078125q0.59375 -0.0625 0.828125 -0.125q0.25 -0.078125 0.484375 -0.328125q0.234375 -0.25 0.3125 -0.59375l1.5 -6.484375l-2.28125 0l0.171875 -0.71875l0.5 0q0.953125 0 1.78125 -0.3125q0.828125 -0.328125 1.359375 -0.828125l0.75 0z" fill-rule="nonzero"/><path fill="#000000" fill-opacity="0.0" d="m697.5827 82.23622l0 0c0 -20.230148 16.39972 -36.62992 36.629883 -36.62992l0 0c9.714844 0 19.03186 3.859211 25.901306 10.728653c6.869446 6.869446 10.728638 16.186409 10.728638 25.901268l0 0c0 20.230148 -16.39978 36.62992 -36.629944 36.62992l0 0c-20.230164 0 -36.629883 -16.399773 -36.629883 -36.62992z" fill-rule="evenodd"/><path stroke="#000000" stroke-width="2.0" stroke-linejoin="round" stroke-linecap="butt" d="m697.5827 82.23622l0 0c0 -20.230148 16.39972 -36.62992 36.629883 -36.62992l0 0c9.714844 0 19.03186 3.859211 25.901306 10.728653c6.869446 6.869446 10.728638 16.186409 10.728638 25.901268l0 0c0 20.230148 -16.39978 36.62992 -36.629944 36.62992l0 0c-20.230164 0 -36.629883 -16.399773 -36.629883 -36.62992z" fill-rule="evenodd"/><path fill="#000000" d="m720.6082 89.421844q-1.34375 0 -2.25 -0.46875q-0.890625 -0.484375 -0.890625 -1.265625q0 -0.359375 0.265625 -0.671875q0.265625 -0.328125 0.640625 -0.328125q0.375 0 0.59375 0.171875q0.21875 0.171875 0.34375 0.390625q0.140625 0.234375 0.234375 0.5625q0.109375 0.328125 0.1875 0.546875q0.140625 0.15625 0.375 0.296875q0.25 0.125 0.703125 0.125q0.984375 0 1.484375 -0.484375q0.515625 -0.5 0.515625 -1.34375q0 -0.625 -0.484375 -0.984375q-0.46875 -0.375 -1.40625 -0.6875q-0.34375 -0.109375 -0.796875 -0.328125q-0.453125 -0.21875 -0.71875 -0.484375q-0.328125 -0.28125 -0.53125 -0.6875q-0.203125 -0.40625 -0.203125 -0.953125q0 -1.15625 1.03125 -2.0q1.046875 -0.859375 2.578125 -0.859375q0.34375 0 0.75 0.03125q0.421875 0.03125 0.90625 0.203125q0.4375 0.140625 0.734375 0.4375q0.296875 0.28125 0.296875 0.734375q0 0.375 -0.25 0.6875q-0.25 0.296875 -0.65625 0.296875q-0.34375 0 -0.5625 -0.140625q-0.21875 -0.15625 -0.359375 -0.390625q-0.140625 -0.25 -0.234375 -0.53125q-0.09375 -0.28125 -0.203125 -0.5625q-0.171875 -0.0625 -0.3125 -0.09375q-0.125 -0.03125 -0.359375 -0.03125q-0.890625 0 -1.359375 0.484375q-0.453125 0.46875 -0.453125 1.125q0 0.640625 0.40625 0.96875q0.421875 0.328125 1.375 0.671875q1.25 0.4375 1.796875 1.015625q0.5625 0.578125 0.5625 1.421875q0 1.390625 -1.0625 2.265625q-1.0625 0.859375 -2.6875 0.859375zm14.543701 -7.484375q0 1.0 -0.5 1.6875q-0.484375 0.6875 -1.328125 1.171875q-0.640625 0.375 -1.484375 0.65625q-0.84375 0.265625 -1.84375 0.5625q-0.875 0.265625 -1.6875 0.640625q-0.796875 0.375 -1.3125 0.921875l7.265625 0l-0.375 1.578125l-8.546875 0l0.3125 -1.234375q0.265625 -0.375 0.640625 -0.71875q0.390625 -0.34375 0.90625 -0.671875q0.46875 -0.28125 1.015625 -0.546875q0.5625 -0.28125 1.21875 -0.53125q0.84375 -0.328125 1.46875 -0.640625q0.640625 -0.328125 1.078125 -0.640625q0.671875 -0.5 0.953125 -1.078125q0.28125 -0.578125 0.28125 -1.359375q0 -0.890625 -0.5 -1.40625q-0.484375 -0.53125 -1.28125 -0.53125q-0.75 0 -1.28125 0.265625q-0.53125 0.25 -0.734375 0.5625q0 0.109375 0.015625 0.3125q0.015625 0.1875 0.015625 0.46875q0 0.828125 -0.328125 1.234375q-0.3125 0.40625 -1.015625 0.40625q-0.5 0 -0.703125 -0.234375q-0.1875 -0.234375 -0.1875 -0.578125q0 -0.53125 0.328125 -1.078125q0.328125 -0.546875 0.953125 -1.03125q0.578125 -0.453125 1.40625 -0.734375q0.84375 -0.296875 1.796875 -0.296875q1.546875 0 2.5 0.765625q0.953125 0.765625 0.953125 2.078125z" fill-rule="nonzero"/><path fill="#000000" fill-opacity="0.0" d="m259.1706 82.23622l168.40945 0" fill-rule="evenodd"/><path stroke="#000000" stroke-width="4.0" stroke-linejoin="round" stroke-linecap="butt" d="m259.1706 82.23622l144.40945 0" fill-rule="evenodd"/><path fill="#000000" stroke="#000000" stroke-width="4.0" stroke-linecap="butt" d="m403.58005 88.84315l18.152405 -6.606926l-18.152405 -6.6069336z" fill-rule="evenodd"/><path fill="#000000" fill-opacity="0.0" d="m500.85828 82.23622l196.72443 0" fill-rule="evenodd"/><path stroke="#000000" stroke-width="4.0" stroke-linejoin="round" stroke-linecap="butt" d="m500.85828 82.23622l172.72443 0" fill-rule="evenodd"/><path fill="#000000" stroke="#000000" stroke-width="4.0" stroke-linecap="butt" d="m673.5827 88.84315l18.152344 -6.606926l-18.152344 -6.6069336z" fill-rule="evenodd"/><path fill="#000000" fill-opacity="0.0" d="m262.11285 79.798355c15.421753 -9.252228 28.041595 -26.345852 45.916016 -28.330711c36.194305 -4.019188 73.91342 8.136494 106.485565 24.42257" fill-rule="evenodd"/><path stroke="#000000" stroke-width="2.0" stroke-linejoin="round" stroke-linecap="butt" stroke-dasharray="8.0,6.0" d="m262.11285 79.798355c15.421753 -9.252228 28.041626 -26.345852 45.916016 -28.330711c18.097168 -2.0095978 36.5755 0.024528503 54.601105 4.5968094c9.012787 2.2861404 17.912354 5.2068214 26.594513 8.573845c4.341095 1.6835175 8.627838 3.4786148 12.847168 5.3617706c2.1096497 0.9415817 4.2024536 1.9051819 6.276825 2.887848l0.0035095215 0.0016708374" fill-rule="evenodd"/><path fill="#000000" stroke="#000000" stroke-width="2.0" stroke-linecap="butt" d="m408.35196 72.889595l-3.0068054 1.0375443l6.5405273 0.6830902l-4.5712585 -4.727463z" fill-rule="evenodd"/><path fill="#000000" fill-opacity="0.0" d="m261.13647 84.68241c16.973053 20.36583 44.187347 41.478004 70.33859 37.12336c20.490173 -3.4119644 41.986908 -5.370537 60.56955 -14.653542c12.648041 -6.3183517 20.569458 -20.055069 33.21524 -26.377953" fill-rule="evenodd"/><path stroke="#000000" stroke-width="2.0" stroke-linejoin="round" stroke-linecap="butt" stroke-dasharray="8.0,6.0" d="m261.13647 84.68241c16.973053 20.36583 44.187347 41.478004 70.33859 37.12336c20.490143 -3.4119644 41.986908 -5.370537 60.56955 -14.653542c6.3239746 -3.1591797 11.46637 -8.172943 16.60849 -13.187271c2.5710144 -2.5071716 5.1419983 -5.0144806 7.8605347 -7.290169c0.6796875 -0.5689316 1.3685303 -1.1233749 2.0689087 -1.6597366c0.17510986 -0.13407898 0.35092163 -0.26704407 0.52752686 -0.39881134l0.32073975 -0.23612213" fill-rule="evenodd"/><path fill="#000000" stroke="#000000" stroke-width="2.0" stroke-linecap="butt" d="m419.43082 84.38012l-0.7295532 3.0960083l4.0720825 -5.1636963l-6.4385376 1.33815z" fill-rule="evenodd"/><path fill="#000000" fill-opacity="0.0" d="m265.04462 76.86534c6.2259216 -16.18536 14.877075 -33.366405 29.307098 -42.984253c15.2925415 -10.192745 37.03665 -11.882534 54.70865 -6.837269c14.703857 4.197874 30.21405 9.706669 41.031494 20.514435c9.6119995 9.6033745 16.174591 23.237186 28.330719 29.307087" fill-rule="evenodd"/><path stroke="#000000" stroke-width="2.0" stroke-linejoin="round" stroke-linecap="butt" stroke-dasharray="8.0,6.0" d="m265.04462 76.86534c6.2259216 -16.18536 14.877106 -33.3664 29.307098 -42.984253c15.2925415 -10.192745 37.03665 -11.882534 54.70865 -6.837269c14.703827 4.197874 30.21405 9.706669 41.031494 20.514435c4.8059998 4.8016853 8.849609 10.610985 13.211304 15.978592c2.1808472 2.6838112 4.4411926 5.2571907 6.916046 7.5389977c0.6187134 0.5704498 1.2508545 1.1226807 1.8984985 1.6538544c0.16195679 0.13278961 0.32479858 0.26425934 0.48867798 0.3943863l0.048583984 0.03792572" fill-rule="evenodd"/><path fill="#000000" stroke="#000000" stroke-width="2.0" stroke-linecap="butt" d="m412.655 73.16201l-3.1078491 0.6773834l6.4151306 1.4462051l-3.9846802 -5.2314224z" fill-rule="evenodd"/><path fill="#000000" fill-opacity="0.0" d="m263.08923 91.52231c18.59311 29.209587 55.307587 62.122192 88.90027 53.72966c19.725586 -4.9280853 40.503174 -15.320541 51.77954 -32.238846c6.143036 -9.216644 3.7675781 -25.335327 13.677155 -30.283463" fill-rule="evenodd"/><path stroke="#000000" stroke-width="2.0" stroke-linejoin="round" stroke-linecap="butt" stroke-dasharray="8.0,6.0" d="m263.08923 91.52231c18.59311 29.209587 55.307587 62.122192 88.90027 53.72966c19.725586 -4.9280853 40.503204 -15.320541 51.77954 -32.238846c3.0715027 -4.60833 4.013397 -10.942154 5.426117 -16.742424c0.70635986 -2.9001389 1.530426 -5.6668777 2.7972412 -8.017845c0.0791626 -0.14693451 0.1600647 -0.29224396 0.24279785 -0.43585968l0.22738647 -0.38166046" fill-rule="evenodd"/><path fill="#000000" stroke="#000000" stroke-width="2.0" stroke-linecap="butt" d="m412.4626 87.43534l-0.09118652 3.1794968l2.9489136 -5.877861l-6.037201 2.60717z" fill-rule="evenodd"/><path fill="#000000" fill-opacity="0.0" d="m504.39108 78.82157c57.498993 -14.374756 124.79166 -25.529354 177.80313 0.97637177" fill-rule="evenodd"/><path stroke="#000000" stroke-width="2.0" stroke-linejoin="round" stroke-linecap="butt" stroke-dasharray="8.0,6.0" d="m504.39108 78.82157c28.749481 -7.187378 59.94742 -13.569717 90.58438 -14.841995c15.318481 -0.6361389 30.496765 0.005241394 45.15857 2.4622574c7.3309937 1.228508 14.532776 2.9109268 21.558472 5.114525c3.5128784 1.101799 6.9816895 2.3338928 10.400574 3.704689c0.8547363 0.34269714 1.7063599 0.6940689 2.5547485 1.0542297c0.42419434 0.18009186 0.8475952 0.36237335 1.2702026 0.546875l0.06829834 0.030258179" fill-rule="evenodd"/><path fill="#000000" stroke="#000000" stroke-width="2.0" stroke-linecap="butt" d="m675.9864 76.89241l-2.9905396 1.083641l6.550293 0.58247375l-4.6434326 -4.656639z" fill-rule="evenodd"/><path fill="#000000" fill-opacity="0.0" d="m505.3701 75.88943c7.8823547 -23.657696 24.392609 -51.773537 48.845123 -56.66142c16.715393 -3.34128 27.547363 21.876896 35.170593 37.12336" fill-rule="evenodd"/><path stroke="#000000" stroke-width="2.0" stroke-linejoin="round" stroke-linecap="butt" stroke-dasharray="8.0,6.0" d="m505.3701 75.88943c7.8823547 -23.657696 24.392609 -51.773537 48.845123 -56.661415c8.357727 -1.670641 15.244568 3.798582 20.994873 11.591274c2.875183 3.8963451 5.4661865 8.37356 7.8148804 12.829588c0.5871582 1.1140099 1.1592407 2.2266922 1.7167358 3.3286438c0.27874756 0.5509758 0.55389404 1.0992699 0.8255005 1.6437073l0.7858887 1.5834389" fill-rule="evenodd"/><path fill="#000000" stroke="#000000" stroke-width="2.0" stroke-linecap="butt" d="m586.3531 50.204662l-3.012207 -1.0218277l4.7512207 4.5465126l-0.7172241 -6.536892z" fill-rule="evenodd"/><path fill="#000000" fill-opacity="0.0" d="m505.3701 82.72966c18.97641 22.769676 62.381805 15.194183 88.90024 1.9527512" fill-rule="evenodd"/><path stroke="#000000" stroke-width="2.0" stroke-linejoin="round" stroke-linecap="butt" stroke-dasharray="8.0,6.0" d="m505.3701 82.72966c9.48819 11.384842 25.083649 15.183388 41.621857 14.480537c8.269104 -0.35141754 16.773865 -1.828186 24.868835 -4.044693c4.0474243 -1.1082458 7.9924316 -2.4014282 11.754272 -3.8313522c0.9404297 -0.35747528 1.8694458 -0.7234955 2.7857666 -1.0973129c0.45812988 -0.18691254 0.913147 -0.37577057 1.3647461 -0.56648254l0.2798462 -0.11917877" fill-rule="evenodd"/><path fill="#000000" stroke="#000000" stroke-width="2.0" stroke-linecap="butt" d="m588.0454 87.551186l-1.1013184 2.9840622l4.6708374 -4.629097l-6.553589 0.54372406z" fill-rule="evenodd"/><path fill="#000000" fill-opacity="0.0" d="m264.0656 81.75171c12.846497 -5.1358337 23.427979 -16.600693 37.123352 -18.56168c24.406036 -3.494606 50.241913 4.6065254 72.293976 15.632549" fill-rule="evenodd"/><path stroke="#000000" stroke-width="2.0" stroke-linejoin="round" stroke-linecap="butt" stroke-dasharray="8.0,6.0" d="m264.0656 81.75171c12.846466 -5.1358337 23.427979 -16.600693 37.123352 -18.56168c12.203003 -1.7472992 24.763489 -0.5956726 37.029755 2.3710365c6.1331177 1.4833527 12.192657 3.4204788 18.097198 5.6758957c2.95224 1.1277008 5.865753 2.3349838 8.730286 3.604889c0.7161865 0.317482 1.4292603 0.63887787 2.1391296 0.9639206l0.11691284 0.05394745" fill-rule="evenodd"/><path fill="#000000" stroke="#000000" stroke-width="2.0" stroke-linecap="butt" d="m367.30222 75.85972l-3.0003967 1.0559235l6.544586 0.6430588l-4.6000977 -4.699402z" fill-rule="evenodd"/><path fill="#000000" fill-opacity="0.0" d="m264.0656 85.65879c35.354797 3.2203522 74.73236 13.923843 106.485565 -1.9527512" fill-rule="evenodd"/><path stroke="#000000" stroke-width="2.0" stroke-linejoin="round" stroke-linecap="butt" stroke-dasharray="8.0,6.0" d="m264.0656 85.65879c17.67743 1.6101761 36.360474 5.0911407 54.593384 6.1849823c9.116455 0.54691315 18.120361 0.49706268 26.829681 -0.6818085c4.354706 -0.589447 8.635742 -1.4611359 12.820404 -2.6816177c1.0462036 -0.30512238 2.0863037 -0.6320343 3.1200867 -0.98178864c0.5168762 -0.17488098 1.0321655 -0.35546875 1.5458069 -0.541893c0.25680542 -0.09321594 0.5132446 -0.1878891 0.7692566 -0.28404236l0.53414917 -0.20404816" fill-rule="evenodd"/><path fill="#000000" stroke="#000000" stroke-width="2.0" stroke-linecap="butt" d="m364.27838 86.468575l-1.151886 2.9649048l4.748871 -4.549019l-6.5618896 0.43223572z" fill-rule="evenodd"/><path fill="#000000" fill-opacity="0.0" d="m504.39014 82.72966c-2.2123413 19.922913 24.000488 42.84983 43.963257 41.031494c22.936096 -2.0891724 27.269165 -39.524345 47.868774 -49.82415" fill-rule="evenodd"/><path stroke="#000000" stroke-width="2.0" stroke-linejoin="round" stroke-linecap="butt" stroke-dasharray="8.0,6.0" d="m504.39014 82.72966c-2.2123413 19.922913 24.00055 42.84983 43.963257 41.031494c11.468018 -1.0445862 18.28534 -10.925674 24.810547 -21.833084c3.2626343 -5.4537125 6.4522705 -11.164001 10.113647 -16.154602c1.8307495 -2.4953003 3.779358 -4.8106766 5.9141235 -6.8240967c0.2668457 -0.25167847 0.53656006 -0.49864197 0.8093262 -0.74064636c0.13641357 -0.1210022 0.27355957 -0.2407608 0.41149902 -0.35925293l0.11529541 -0.09742737" fill-rule="evenodd"/><path fill="#000000" stroke="#000000" stroke-width="2.0" stroke-linecap="butt" d="m590.52783 77.752045l-0.6166382 3.120453l3.881897 -5.308098l-6.385681 1.5709686z" fill-rule="evenodd"/><path fill="#000000" fill-opacity="0.0" d="m594.2703 81.75187c27.827148 -19.879597 71.9892 -17.246872 102.57745 -1.9527588" fill-rule="evenodd"/><path stroke="#000000" stroke-width="2.0" stroke-linejoin="round" stroke-linecap="butt" stroke-dasharray="8.0,6.0" d="m594.2703 81.75187c13.913574 -9.939796 31.910889 -14.251518 50.253357 -14.166519c9.171204 0.042495728 18.42871 1.1841736 27.305115 3.2711105c4.4382935 1.0434647 8.78125 2.3232422 12.97052 3.8200989c1.0473633 0.37421417 2.085083 0.7619934 3.1122437 1.1630402c0.51361084 0.200531 1.0245361 0.40436554 1.5328369 0.61148834c0.25408936 0.1035614 0.50756836 0.20793915 0.7602539 0.31313324l0.4144287 0.1743164" fill-rule="evenodd"/><path fill="#000000" stroke="#000000" stroke-width="2.0" stroke-linecap="butt" d="m690.6191 76.93854l-2.982605 1.1052399l6.5543213 0.5350876l-4.677002 -4.62294z" fill-rule="evenodd"/><path fill="#000000" fill-opacity="0.0" d="m17.501312 82.23622l168.40945 0" fill-rule="evenodd"/><path stroke="#000000" stroke-width="4.0" stroke-linejoin="round" stroke-linecap="butt" d="m17.501312 82.23622l144.40945 0" fill-rule="evenodd"/><path fill="#000000" stroke="#000000" stroke-width="4.0" stroke-linecap="butt" d="m161.91077 88.84315l18.15239 -6.606926l-18.15239 -6.6069336z" fill-rule="evenodd"/><path fill="#000000" fill-opacity="0.0" d="m22.0 79.00123c6.913328 -11.522217 15.823845 -25.364769 29.0 -28.0c20.95987 -4.1919746 42.91587 0.48597717 64.0 4.0c24.975662 4.162609 45.679825 27.0 71.0 27.0" fill-rule="evenodd"/><path stroke="#000000" stroke-width="2.0" stroke-linejoin="round" stroke-linecap="butt" stroke-dasharray="2.0,6.0" d="m22.0 79.00123c6.91333 -11.522217 15.823841 -25.364773 29.0 -27.999996c20.95987 -4.1919785 42.91587 0.48597336 64.0 4.0c12.487831 2.0813026 23.907791 8.831303 35.370804 15.060978c5.7315216 3.11483 11.473801 6.099594 17.365707 8.305641c1.4729767 0.55150604 2.955307 1.0543518 4.4491425 1.4983902c0.37345886 0.11100769 0.7476654 0.21834564 1.1226044 0.321846c0.18745422 0.051750183 0.37512207 0.10253906 0.562973 0.15235138l0.23583984 0.06124878" fill-rule="evenodd"/><path fill="#000000" stroke="#000000" stroke-width="2.0" stroke-linecap="butt" d="m173.66675 83.675674l9.435532 -2.0641708l-8.554855 -4.483803z" fill-rule="evenodd"/><path fill="#000000" fill-opacity="0.0" d="m22.0 85.0c8.576645 14.294403 42.544952 13.910103 50.0 -1.0" fill-rule="evenodd"/><path stroke="#000000" stroke-width="2.0" stroke-linejoin="round" stroke-linecap="butt" stroke-dasharray="2.0,6.0" d="m22.0 85.0c4.2883224 7.147209 14.924557 10.624733 25.420597 10.451691c5.2480164 -0.08652496 10.460991 -1.0856857 14.827892 -2.9950867c0.27293396 -0.11934662 0.54255676 -0.24223328 0.8086853 -0.3686905l0.05410385 -0.026237488" fill-rule="evenodd"/><path fill="#000000" stroke="#000000" stroke-width="2.0" stroke-linecap="butt" d="m65.33057 94.508644l4.5036926 -8.544411l-8.942268 3.6504745z" fill-rule="evenodd"/><path fill="#000000" fill-opacity="0.0" d="m24.0 89.0c2.9072418 7.7526474 7.8809605 17.37619 16.0 19.0c15.205151 3.041031 35.065384 -6.130768 42.0 -20.0" fill-rule="evenodd"/><path stroke="#000000" stroke-width="2.0" stroke-linejoin="round" stroke-linecap="butt" stroke-dasharray="2.0,6.0" d="m24.0 89.0c2.9072418 7.7526474 7.8809586 17.37619 16.0 19.0c7.602577 1.5205154 16.36892 -0.012176514 24.101448 -3.6586456c1.933136 -0.9116287 3.801651 -1.9553528 5.5712204 -3.1165237c0.8847885 -0.58057404 1.7448349 -1.1905136 2.5758514 -1.82798c0.41550446 -0.31873322 0.82375336 -0.64434814 1.2242126 -0.9766083c0.20022583 -0.16613007 0.39850616 -0.33392334 0.59477234 -0.50335693l0.53323364 -0.46961212" fill-rule="evenodd"/><path fill="#000000" stroke="#000000" stroke-width="2.0" stroke-linecap="butt" d="m77.20147 99.48421l2.995697 -9.182373l-8.197151 5.1085052z" fill-rule="evenodd"/><path fill="#000000" fill-opacity="0.0" d="m25.0 83.00042c18.474308 -6.158104 40.58226 -15.70887 58.0 -7.0" fill-rule="evenodd"/><path stroke="#000000" stroke-width="2.0" stroke-linejoin="round" stroke-linecap="butt" stroke-dasharray="2.0,6.0" d="m25.0 83.00042c9.237152 -3.0790482 19.38272 -7.0062714 29.396214 -9.075111c5.0067444 -1.0344238 9.980473 -1.6042557 14.791126 -1.3711777c0.6013336 0.029136658 1.2001114 0.07081604 1.7960968 0.1257019c0.14899445 0.013725281 0.29781342 0.028266907 0.4464569 0.043655396l0.025413513 0.0027770996" fill-rule="evenodd"/><path fill="#000000" stroke="#000000" stroke-width="2.0" stroke-linecap="butt" d="m70.55397 75.90439l9.633163 -0.7017212l-7.8304825 -5.6545258z" fill-rule="evenodd"/><path fill="#000000" fill-opacity="0.0" d="m27.0 76.000984c15.977116 -6.3908463 30.851562 -17.570961 48.0 -19.0c23.133797 -1.9278145 46.236786 8.618393 67.0 19.0" fill-rule="evenodd"/><path stroke="#000000" stroke-width="2.0" stroke-linejoin="round" stroke-linecap="butt" stroke-dasharray="2.0,6.0" d="m27.0 76.000984c15.977112 -6.3908463 30.851562 -17.570965 48.0 -19.0c11.566902 -0.96390915 23.126099 1.1906891 34.38896 4.8839645c5.631439 1.8466377 11.188797 4.0779495 16.635994 6.4964447c1.3618011 0.6046295 2.716713 1.2209473 4.064186 1.8458862c0.3368683 0.15623474 0.67326355 0.31301117 1.0091858 0.47027588l0.11152649 0.05243683" fill-rule="evenodd"/><path fill="#000000" stroke="#000000" stroke-width="2.0" stroke-linecap="butt" d="m129.76433 73.7204l9.606644 1.0011826l-6.715576 -6.941986z" fill-rule="evenodd"/><path fill="#000000" fill-opacity="0.0" d="m23.0 80.0c0 19.393585 9.352604 45.672173 28.0 51.0c32.718513 9.348145 73.78232 -19.564644 89.0 -50.0" fill-rule="evenodd"/><path stroke="#000000" stroke-width="2.0" stroke-linejoin="round" stroke-linecap="butt" stroke-dasharray="2.0,6.0" d="m23.0 80.0c0 19.393585 9.352604 45.672173 28.0 51.0c16.35926 4.6740723 34.804832 -0.21708679 51.062805 -10.081177c8.12899 -4.9320602 15.711082 -11.107338 22.212029 -17.951828c3.250473 -3.4222336 6.2306595 -7.01178 8.873772 -10.696861c0.16519165 -0.23031616 0.3290863 -0.46100616 0.49162292 -0.6920624l0.1963501 -0.2818451" fill-rule="evenodd"/><path fill="#000000" stroke="#000000" stroke-width="2.0" stroke-linecap="butt" d="m136.67102 92.99295l1.8272552 -9.484268l-7.4961243 6.090828z" fill-rule="evenodd"/><path fill="#000000" fill-opacity="0.0" d="m79.0 85.00111c9.871399 -9.871391 21.125122 -21.458344 35.0 -23.0c19.613647 -2.1792908 38.27835 9.759453 57.0 16.0" fill-rule="evenodd"/><path stroke="#000000" stroke-width="2.0" stroke-linejoin="round" stroke-linecap="butt" stroke-dasharray="2.0,6.0" d="m79.0 85.00111c9.871391 -9.871399 21.125122 -21.458347 35.0 -23.0c9.806824 -1.0896492 19.37642 1.3502197 28.834503 4.84256c4.7290497 1.74617 9.430206 3.7554703 14.119232 5.7182465c0.5861206 0.24534607 1.1720581 0.48996735 1.7578278 0.7332611l1.0714264 0.4422989" fill-rule="evenodd"/><path fill="#000000" stroke="#000000" stroke-width="2.0" stroke-linecap="butt" d="m158.60925 76.825386l9.657715 0.1368866l-7.310257 -6.3127213z" fill-rule="evenodd"/><path fill="#000000" fill-opacity="0.0" d="m22.0 10.501312l84.031494 0l0 42.015747l-84.031494 0z" fill-rule="evenodd"/><path fill="#000000" d="m32.234375 37.42131l0 -9.578125l1.34375 0q0.359375 0 0.5 0.140625q0.140625 0.125 0.1875 0.4375l0.140625 1.171875q0.515625 -0.890625 1.203125 -1.40625q0.6875 -0.515625 1.546875 -0.515625q0.703125 0 1.171875 0.328125l-0.296875 1.71875q-0.03125 0.171875 -0.125 0.25q-0.09375 0.0625 -0.25 0.0625q-0.140625 0 -0.390625 -0.0625q-0.234375 -0.0625 -0.625 -0.0625q-0.71875 0 -1.234375 0.40625q-0.515625 0.390625 -0.875 1.15625l0 5.953125l-2.296875 0zm11.5742035 -9.71875q0.90625 0 1.65625 0.296875q0.765625 0.28125 1.3125 0.84375q0.5625 0.546875 0.859375 1.359375q0.3125 0.796875 0.3125 1.84375q0 0.25 -0.03125 0.421875q-0.015625 0.171875 -0.078125 0.28125q-0.0625 0.09375 -0.171875 0.140625q-0.09375 0.03125 -0.25 0.03125l-5.921875 0q0.109375 1.484375 0.796875 2.171875q0.6875 0.6875 1.828125 0.6875q0.5625 0 0.96875 -0.125q0.40625 -0.140625 0.703125 -0.296875q0.3125 -0.15625 0.53125 -0.28125q0.234375 -0.140625 0.453125 -0.140625q0.140625 0 0.234375 0.0625q0.109375 0.046875 0.1875 0.15625l0.671875 0.84375q-0.390625 0.4375 -0.875 0.75q-0.46875 0.296875 -0.984375 0.484375q-0.515625 0.171875 -1.0625 0.25q-0.53125 0.078125 -1.03125 0.078125q-1.0 0 -1.859375 -0.328125q-0.859375 -0.328125 -1.5 -0.96875q-0.625 -0.65625 -0.984375 -1.609375q-0.359375 -0.96875 -0.359375 -2.21875q0 -0.984375 0.3125 -1.84375q0.3125 -0.875 0.90625 -1.5q0.59375 -0.640625 1.4375 -1.015625q0.859375 -0.375 1.9375 -0.375zm0.046875 1.65625q-1.015625 0 -1.578125 0.5625q-0.5625 0.5625 -0.734375 1.609375l4.328125 0q0 -0.4375 -0.125 -0.828125q-0.109375 -0.40625 -0.359375 -0.703125q-0.25 -0.296875 -0.640625 -0.46875q-0.375 -0.171875 -0.890625 -0.171875zm8.424896 -5.796875l0 13.859375l-2.3125 0l0 -13.859375l2.3125 0zm6.680847 4.140625q1.078125 0 1.953125 0.34375q0.875 0.34375 1.484375 0.984375q0.609375 0.625 0.9375 1.546875q0.34375 0.90625 0.34375 2.046875q0 1.125 -0.34375 2.046875q-0.328125 0.90625 -0.9375 1.5625q-0.609375 0.640625 -1.484375 0.984375q-0.875 0.34375 -1.953125 0.34375q-1.0625 0 -1.953125 -0.34375q-0.875 -0.34375 -1.5 -0.984375q-0.609375 -0.65625 -0.953125 -1.5625q-0.34375 -0.921875 -0.34375 -2.046875q0 -1.140625 0.34375 -2.046875q0.34375 -0.921875 0.953125 -1.546875q0.625 -0.640625 1.5 -0.984375q0.890625 -0.34375 1.953125 -0.34375zm0 8.09375q1.203125 0 1.765625 -0.796875q0.578125 -0.8125 0.578125 -2.359375q0 -1.546875 -0.578125 -2.359375q-0.5625 -0.8125 -1.765625 -0.8125q-1.203125 0 -1.78125 0.8125q-0.578125 0.8125 -0.578125 2.359375q0 1.53125 0.578125 2.34375q0.578125 0.8125 1.78125 0.8125zm14.027954 1.625l-1.03125 0q-0.328125 0 -0.515625 -0.09375q-0.1875 -0.109375 -0.28125 -0.40625l-0.203125 -0.671875q-0.375 0.328125 -0.71875 0.578125q-0.34375 0.234375 -0.71875 0.40625q-0.375 0.171875 -0.796875 0.25q-0.421875 0.09375 -0.9375 0.09375q-0.609375 0 -1.125 -0.15625q-0.5 -0.171875 -0.875 -0.5q-0.359375 -0.328125 -0.578125 -0.8125q-0.203125 -0.484375 -0.203125 -1.125q0 -0.546875 0.28125 -1.078125q0.296875 -0.53125 0.953125 -0.953125q0.671875 -0.421875 1.765625 -0.703125q1.09375 -0.28125 2.734375 -0.3125l0 -0.5625q0 -0.953125 -0.40625 -1.40625q-0.40625 -0.46875 -1.1875 -0.46875q-0.546875 0 -0.921875 0.125q-0.375 0.125 -0.65625 0.296875q-0.265625 0.15625 -0.5 0.296875q-0.234375 0.125 -0.515625 0.125q-0.234375 0 -0.40625 -0.125q-0.171875 -0.125 -0.265625 -0.296875l-0.421875 -0.734375q1.65625 -1.515625 3.984375 -1.515625q0.84375 0 1.5 0.28125q0.65625 0.265625 1.109375 0.765625q0.453125 0.484375 0.6875 1.171875q0.25 0.671875 0.25 1.484375l0 6.046875zm-4.484375 -1.4375q0.359375 0 0.65625 -0.0625q0.296875 -0.0625 0.5625 -0.1875q0.265625 -0.140625 0.515625 -0.328125q0.25 -0.1875 0.5 -0.453125l0 -1.609375q-1.015625 0.03125 -1.6875 0.171875q-0.671875 0.125 -1.09375 0.328125q-0.40625 0.1875 -0.578125 0.453125q-0.171875 0.25 -0.171875 0.5625q0 0.609375 0.359375 0.875q0.359375 0.25 0.9375 0.25zm13.485306 1.4375q-0.453125 0 -0.59375 -0.421875l-0.1875 -0.921875q-0.296875 0.34375 -0.625 0.609375q-0.328125 0.265625 -0.703125 0.46875q-0.375 0.1875 -0.8125 0.296875q-0.421875 0.109375 -0.9375 0.109375q-0.78125 0 -1.4375 -0.328125q-0.640625 -0.328125 -1.125 -0.9375q-0.46875 -0.625 -0.734375 -1.53125q-0.25 -0.921875 -0.25 -2.09375q0 -1.078125 0.28125 -1.984375q0.296875 -0.921875 0.84375 -1.59375q0.546875 -0.671875 1.296875 -1.046875q0.75 -0.375 1.703125 -0.375q0.796875 0 1.359375 0.265625q0.578125 0.25 1.03125 0.671875l0 -5.046875l2.296875 0l0 13.859375l-1.40625 0zm-3.078125 -1.6875q0.71875 0 1.21875 -0.296875q0.515625 -0.296875 0.96875 -0.84375l0 -4.296875q-0.40625 -0.484375 -0.875 -0.671875q-0.453125 -0.203125 -0.984375 -0.203125q-0.515625 0 -0.9375 0.203125q-0.421875 0.1875 -0.71875 0.59375q-0.296875 0.390625 -0.453125 1.0q-0.15625 0.609375 -0.15625 1.453125q0 0.828125 0.125 1.421875q0.140625 0.578125 0.390625 0.953125q0.25 0.359375 0.609375 0.53125q0.375 0.15625 0.8125 0.15625z" fill-rule="nonzero"/><path fill="#000000" fill-opacity="0.0" d="m259.1706 0l84.031494 0l0 42.015747l-84.031494 0z" fill-rule="evenodd"/><path fill="#000000" d="m276.90497 26.919998l-1.03125 0q-0.328125 0 -0.515625 -0.09375q-0.1875 -0.109375 -0.28125 -0.40625l-0.203125 -0.671875q-0.375 0.328125 -0.71875 0.578125q-0.34375 0.234375 -0.71875 0.40625q-0.375 0.171875 -0.796875 0.25q-0.421875 0.09375 -0.9375 0.09375q-0.609375 0 -1.125 -0.15625q-0.5 -0.171875 -0.875 -0.5q-0.359375 -0.328125 -0.578125 -0.8125q-0.203125 -0.484375 -0.203125 -1.125q0 -0.546875 0.28125 -1.078125q0.296875 -0.53125 0.953125 -0.953125q0.671875 -0.421875 1.765625 -0.703125q1.09375 -0.28125 2.734375 -0.3125l0 -0.5625q0 -0.953125 -0.40625 -1.40625q-0.40625 -0.46875 -1.1875 -0.46875q-0.546875 0 -0.921875 0.125q-0.375 0.125 -0.65625 0.296875q-0.265625 0.15625 -0.5 0.296875q-0.234375 0.125 -0.515625 0.125q-0.234375 0 -0.40625 -0.125q-0.171875 -0.125 -0.265625 -0.296875l-0.421875 -0.734375q1.65625 -1.515625 3.984375 -1.515625q0.84375 0 1.5 0.28125q0.65625 0.265625 1.109375 0.765625q0.453125 0.484375 0.6875 1.171875q0.25 0.671875 0.25 1.484375l0 6.046875zm-4.484375 -1.4375q0.359375 0 0.65625 -0.0625q0.296875 -0.0625 0.5625 -0.1875q0.265625 -0.140625 0.515625 -0.328125q0.25 -0.1875 0.5 -0.453125l0 -1.609375q-1.015625 0.03125 -1.6875 0.171875q-0.671875 0.125 -1.09375 0.328125q-0.40625 0.1875 -0.578125 0.453125q-0.171875 0.25 -0.171875 0.5625q0 0.609375 0.359375 0.875q0.359375 0.25 0.9375 0.25zm13.469696 -6.109375q-0.09375 0.125 -0.203125 0.203125q-0.09375 0.078125 -0.28125 0.078125q-0.171875 0 -0.34375 -0.109375q-0.171875 -0.109375 -0.40625 -0.234375q-0.21875 -0.140625 -0.546875 -0.25q-0.328125 -0.109375 -0.796875 -0.109375q-0.609375 0 -1.0625 0.21875q-0.453125 0.21875 -0.765625 0.640625q-0.296875 0.40625 -0.453125 0.984375q-0.140625 0.578125 -0.140625 1.328125q0 0.75 0.15625 1.359375q0.171875 0.59375 0.46875 1.0q0.3125 0.40625 0.75 0.625q0.4375 0.203125 0.984375 0.203125q0.5625 0 0.890625 -0.140625q0.34375 -0.140625 0.578125 -0.296875q0.234375 -0.15625 0.40625 -0.296875q0.171875 -0.140625 0.390625 -0.140625q0.28125 0 0.421875 0.21875l0.65625 0.84375q-0.375 0.4375 -0.828125 0.75q-0.453125 0.296875 -0.9375 0.484375q-0.46875 0.171875 -0.984375 0.25q-0.515625 0.078125 -1.015625 0.078125q-0.890625 0 -1.671875 -0.328125q-0.78125 -0.328125 -1.375 -0.96875q-0.578125 -0.640625 -0.921875 -1.546875q-0.328125 -0.921875 -0.328125 -2.09375q0 -1.0625 0.296875 -1.953125q0.296875 -0.90625 0.890625 -1.5625q0.59375 -0.65625 1.453125 -1.03125q0.875 -0.375 2.0 -0.375q1.078125 0 1.875 0.34375q0.8125 0.34375 1.453125 0.984375l-0.609375 0.84375zm5.3208923 7.703125q-1.234375 0 -1.90625 -0.703125q-0.671875 -0.71875 -0.671875 -1.953125l0 -5.34375l-0.96875 0q-0.1875 0 -0.328125 -0.125q-0.140625 -0.125 -0.140625 -0.359375l0 -0.921875l1.546875 -0.25l0.484375 -2.609375q0.03125 -0.1875 0.171875 -0.28125q0.140625 -0.109375 0.34375 -0.109375l1.1875 0l0 3.015625l2.515625 0l0 1.640625l-2.515625 0l0 5.1875q0 0.453125 0.21875 0.703125q0.234375 0.25 0.609375 0.25q0.203125 0 0.34375 -0.046875q0.15625 -0.0625 0.265625 -0.109375q0.109375 -0.0625 0.1875 -0.109375q0.078125 -0.0625 0.171875 -0.0625q0.09375 0 0.15625 0.0625q0.078125 0.046875 0.140625 0.15625l0.703125 1.109375q-0.515625 0.421875 -1.171875 0.640625q-0.640625 0.21875 -1.34375 0.21875z" fill-rule="nonzero"/><path fill="#000000" fill-opacity="0.0" d="m496.34122 0l84.03146 0l0 42.015747l-84.03146 0z" fill-rule="evenodd"/><path fill="#000000" d="m514.07556 26.919998l-1.03125 0q-0.328125 0 -0.515625 -0.09375q-0.1875 -0.109375 -0.28125 -0.40625l-0.203125 -0.671875q-0.37496948 0.328125 -0.7187195 0.578125q-0.34375 0.234375 -0.71875 0.40625q-0.375 0.171875 -0.796875 0.25q-0.421875 0.09375 -0.9375 0.09375q-0.609375 0 -1.125 -0.15625q-0.5 -0.171875 -0.875 -0.5q-0.359375 -0.328125 -0.578125 -0.8125q-0.203125 -0.484375 -0.203125 -1.125q0 -0.546875 0.28125 -1.078125q0.296875 -0.53125 0.953125 -0.953125q0.671875 -0.421875 1.765625 -0.703125q1.09375 -0.28125 2.734375 -0.3125l0 -0.5625q0 -0.953125 -0.40625 -1.40625q-0.40625 -0.46875 -1.1875 -0.46875q-0.546875 0 -0.921875 0.125q-0.375 0.125 -0.65625 0.296875q-0.265625 0.15625 -0.5 0.296875q-0.234375 0.125 -0.515625 0.125q-0.234375 0 -0.40625 -0.125q-0.171875 -0.125 -0.265625 -0.296875l-0.421875 -0.734375q1.65625 -1.515625 3.984375 -1.515625q0.84375 0 1.4999695 0.28125q0.65625 0.265625 1.109375 0.765625q0.453125 0.484375 0.6875 1.171875q0.25 0.671875 0.25 1.484375l0 6.046875zm-4.4843445 -1.4375q0.359375 0 0.65625 -0.0625q0.296875 -0.0625 0.5625 -0.1875q0.265625 -0.140625 0.515625 -0.328125q0.25 -0.1875 0.5 -0.453125l0 -1.609375q-1.015625 0.03125 -1.6875 0.171875q-0.671875 0.125 -1.09375 0.328125q-0.40625 0.1875 -0.578125 0.453125q-0.171875 0.25 -0.171875 0.5625q0 0.609375 0.359375 0.875q0.359375 0.25 0.9375 0.25zm13.469696 -6.109375q-0.09375 0.125 -0.203125 0.203125q-0.09375 0.078125 -0.28125 0.078125q-0.171875 0 -0.34375 -0.109375q-0.171875 -0.109375 -0.40625 -0.234375q-0.21875 -0.140625 -0.546875 -0.25q-0.328125 -0.109375 -0.796875 -0.109375q-0.609375 0 -1.0625 0.21875q-0.453125 0.21875 -0.765625 0.640625q-0.296875 0.40625 -0.453125 0.984375q-0.140625 0.578125 -0.140625 1.328125q0 0.75 0.15625 1.359375q0.171875 0.59375 0.46875 1.0q0.3125 0.40625 0.75 0.625q0.4375 0.203125 0.984375 0.203125q0.5625 0 0.890625 -0.140625q0.34375 -0.140625 0.578125 -0.296875q0.234375 -0.15625 0.40625 -0.296875q0.171875 -0.140625 0.390625 -0.140625q0.28125 0 0.421875 0.21875l0.65625 0.84375q-0.375 0.4375 -0.828125 0.75q-0.453125 0.296875 -0.9375 0.484375q-0.46875 0.171875 -0.984375 0.25q-0.515625 0.078125 -1.015625 0.078125q-0.890625 0 -1.671875 -0.328125q-0.78125 -0.328125 -1.375 -0.96875q-0.578125 -0.640625 -0.921875 -1.546875q-0.328125 -0.921875 -0.328125 -2.09375q0 -1.0625 0.296875 -1.953125q0.296875 -0.90625 0.890625 -1.5625q0.59375 -0.65625 1.453125 -1.03125q0.875 -0.375 2.0 -0.375q1.078125 0 1.875 0.34375q0.8125 0.34375 1.453125 0.984375l-0.609375 0.84375zm5.320862 7.703125q-1.234375 0 -1.90625 -0.703125q-0.671875 -0.71875 -0.671875 -1.953125l0 -5.34375l-0.96875 0q-0.1875 0 -0.328125 -0.125q-0.140625 -0.125 -0.140625 -0.359375l0 -0.921875l1.546875 -0.25l0.484375 -2.609375q0.03125 -0.1875 0.171875 -0.28125q0.140625 -0.109375 0.34375 -0.109375l1.1875 0l0 3.015625l2.515625 0l0 1.640625l-2.515625 0l0 5.1875q0 0.453125 0.21875 0.703125q0.234375 0.25 0.609375 0.25q0.203125 0 0.34375 -0.046875q0.15625 -0.0625 0.265625 -0.109375q0.109375 -0.0625 0.1875 -0.109375q0.078125 -0.0625 0.171875 -0.0625q0.09375 0 0.15625 0.0625q0.078125 0.046875 0.140625 0.15625l0.703125 1.109375q-0.515625 0.421875 -1.171875 0.640625q-0.640625 0.21875 -1.34375 0.21875z" fill-rule="nonzero"/></g></svg>