<svg version="1.1" viewBox="0.0 0.0 344.56430446194224 106.18897637795276" fill="none" stroke="none" stroke-linecap="square" stroke-miterlimit="10" xmlns:xlink="http://www.w3.org/1999/xlink" xmlns="http://www.w3.org/2000/svg"><clipPath id="p.0"><path d="m0 0l344.5643 0l0 106.18898l-344.5643 0l0 -106.18898z" clip-rule="nonzero"/></clipPath><g clip-path="url(#p.0)"><path fill="#000000" fill-opacity="0.0" d="m0 0l344.5643 0l0 106.18898l-344.5643 0z" fill-rule="evenodd"/><path fill="#000000" fill-opacity="0.0" d="m19.986877 49.052494l0 0c0 -20.230148 16.399773 -36.62992 36.62992 -36.62992l0 0c9.714859 0 19.031822 3.859212 25.901268 10.728656c6.869438 6.869442 10.728653 16.186407 10.728653 25.901266l0 0c0 20.230145 -16.399773 36.629917 -36.62992 36.629917l0 0c-20.230148 0 -36.62992 -16.399773 -36.62992 -36.629917z" fill-rule="evenodd"/><path stroke="#000000" stroke-width="2.0" stroke-linejoin="round" stroke-linecap="butt" d="m19.986877 49.052494l0 0c0 -20.230148 16.399773 -36.62992 36.62992 -36.62992l0 0c9.714859 0 19.031822 3.859212 25.901268 10.728656c6.869438 6.869442 10.728653 16.186407 10.728653 25.901266l0 0c0 20.230145 -16.399773 36.629917 -36.62992 36.629917l0 0c-20.230148 0 -36.62992 -16.399773 -36.62992 -36.629917z" fill-rule="evenodd"/><path fill="#000000" d="m43.012405 56.238117q-1.34375 0 -2.25 -0.46875q-0.890625 -0.484375 -0.890625 -1.265625q0 -0.359375 0.265625 -0.671875q0.265625 -0.328125 0.640625 -0.328125q0.375 0 0.59375 0.171875q0.21875 0.171875 0.34375 0.390625q0.140625 0.234375 0.234375 0.5625q0.109375 0.328125 0.1875 0.546875q0.140625 0.15625 0.375 0.296875q0.25 0.125 0.703125 0.125q0.984375 0 1.484375 -0.484375q0.515625 -0.5 0.515625 -1.34375q0 -0.625 -0.484375 -0.984375q-0.46875 -0.375 -1.40625 -0.6875q-0.34375 -0.109375 -0.796875 -0.328125q-0.453125 -0.21875 -0.71875 -0.484375q-0.328125 -0.28125 -0.53125 -0.6875q-0.203125 -0.40625 -0.203125 -0.953125q0 -1.15625 1.03125 -2.0q1.046875 -0.859375 2.578125 -0.859375q0.34375 0 0.75 0.03125q0.421875 0.03125 0.90625 0.203125q0.4375 0.140625 0.734375 0.4375q0.296875 0.28125 0.296875 0.734375q0 0.375 -0.25 0.6875q-0.25 0.296875 -0.65625 0.296875q-0.34375 0 -0.5625 -0.140625q-0.21875 -0.15625 -0.359375 -0.390625q-0.140625 -0.25 -0.234375 -0.53125q-0.09375 -0.28125 -0.203125 -0.5625q-0.171875 -0.0625 -0.3125 -0.09375q-0.125 -0.03125 -0.359375 -0.03125q-0.890625 0 -1.359375 0.484375q-0.453125 0.46875 -0.453125 1.125q0 0.640625 0.40625 0.96875q0.421875 0.328125 1.375 0.671875q1.25 0.4375 1.796875 1.015625q0.5625 0.578125 0.5625 1.421875q0 1.390625 -1.0625 2.265625q-1.0625 0.859375 -2.6875 0.859375zm15.731186 -6.609375q0 1.296875 -0.484375 2.515625q-0.46875 1.203125 -1.265625 2.09375q-0.859375 0.9375 -1.953125 1.484375q-1.09375 0.546875 -2.5 0.546875q-1.828125 0 -2.859375 -1.046875q-1.015625 -1.046875 -1.015625 -2.625q0 -1.375 0.46875 -2.578125q0.484375 -1.21875 1.328125 -2.140625q0.828125 -0.921875 1.96875 -1.4375q1.15625 -0.53125 2.421875 -0.53125q1.875 0 2.875 1.078125q1.015625 1.078125 1.015625 2.640625zm-1.953125 -0.421875q0 -1.28125 -0.546875 -1.9375q-0.546875 -0.671875 -1.515625 -0.671875q-1.0 0 -1.8125 0.609375q-0.796875 0.609375 -1.34375 1.71875q-0.46875 0.953125 -0.71875 2.0625q-0.25 1.09375 -0.25 2.0q0 1.21875 0.53125 1.90625q0.53125 0.6875 1.546875 0.6875q0.953125 0 1.734375 -0.5625q0.796875 -0.5625 1.40625 -1.765625q0.515625 -1.0 0.734375 -2.078125q0.234375 -1.09375 0.234375 -1.96875z" fill-rule="nonzero"/><path fill="#000000" fill-opacity="0.0" d="m261.65878 49.052494l0 0c0 -20.230148 16.39978 -36.62992 36.629944 -36.62992l0 0c9.714844 0 19.0318 3.859212 25.901245 10.728656c6.869446 6.869442 10.728668 16.186407 10.728668 25.901266l0 0c0 20.230145 -16.39978 36.629917 -36.629913 36.629917l0 0c-20.230164 0 -36.629944 -16.399773 -36.629944 -36.629917z" fill-rule="evenodd"/><path stroke="#000000" stroke-width="2.0" stroke-linejoin="round" stroke-linecap="butt" d="m261.65878 49.052494l0 0c0 -20.230148 16.39978 -36.62992 36.629944 -36.62992l0 0c9.714844 0 19.0318 3.859212 25.901245 10.728656c6.869446 6.869442 10.728668 16.186407 10.728668 25.901266l0 0c0 20.230145 -16.39978 36.629917 -36.629913 36.629917l0 0c-20.230164 0 -36.629944 -16.399773 -36.629944 -36.629917z" fill-rule="evenodd"/><path fill="#000000" d="m284.68433 56.238117q-1.34375 0 -2.25 -0.46875q-0.890625 -0.484375 -0.890625 -1.265625q0 -0.359375 0.265625 -0.671875q0.265625 -0.328125 0.640625 -0.328125q0.375 0 0.59375 0.171875q0.21875 0.171875 0.34375 0.390625q0.140625 0.234375 0.234375 0.5625q0.109375 0.328125 0.1875 0.546875q0.140625 0.15625 0.375 0.296875q0.25 0.125 0.703125 0.125q0.984375 0 1.484375 -0.484375q0.515625 -0.5 0.515625 -1.34375q0 -0.625 -0.484375 -0.984375q-0.46875 -0.375 -1.40625 -0.6875q-0.34375 -0.109375 -0.796875 -0.328125q-0.453125 -0.21875 -0.71875 -0.484375q-0.328125 -0.28125 -0.53125 -0.6875q-0.203125 -0.40625 -0.203125 -0.953125q0 -1.15625 1.03125 -2.0q1.046875 -0.859375 2.578125 -0.859375q0.34375 0 0.75 0.03125q0.421875 0.03125 0.90625 0.203125q0.4375 0.140625 0.734375 0.4375q0.296875 0.28125 0.296875 0.734375q0 0.375 -0.25 0.6875q-0.25 0.296875 -0.65625 0.296875q-0.34375 0 -0.5625 -0.140625q-0.21875 -0.15625 -0.359375 -0.390625q-0.140625 -0.25 -0.234375 -0.53125q-0.09375 -0.28125 -0.203125 -0.5625q-0.171875 -0.0625 -0.3125 -0.09375q-0.125 -0.03125 -0.359375 -0.03125q-0.890625 0 -1.359375 0.484375q-0.453125 0.46875 -0.453125 1.125q0 0.640625 0.40625 0.96875q0.421875 0.328125 1.375 0.671875q1.25 0.4375 1.796875 1.015625q0.5625 0.578125 0.5625 1.421875q0 1.390625 -1.0625 2.265625q-1.0625 0.859375 -2.6875 0.859375zm11.262421 -10.328125q-0.1875 0.6875 -0.421875 1.5625q-0.21875 0.875 -0.296875 1.234375l-1.265625 5.453125q-0.015625 0.078125 -0.03125 0.15625q0 0.078125 0 0.15625q0 0.234375 0.109375 0.390625q0.109375 0.15625 0.265625 0.234375q0.1875 0.09375 0.6875 0.171875q0.515625 0.078125 0.828125 0.109375l-0.15625 0.59375l-6.140625 0l0.15625 -0.59375q0.28125 -0.03125 0.859375 -0.078125q0.59375 -0.0625 0.828125 -0.125q0.25 -0.078125 0.484375 -0.328125q0.234375 -0.25 0.3125 -0.59375l1.5 -6.484375l-2.28125 0l0.171875 -0.71875l0.5 0q0.953125 0 1.78125 -0.3125q0.828125 -0.328125 1.359375 -0.828125l0.75 0z" fill-rule="nonzero"/><path fill="#000000" fill-opacity="0.0" d="m93.24672 49.052494l168.40944 0" fill-rule="evenodd"/><path stroke="#000000" stroke-width="4.0" stroke-linejoin="round" stroke-linecap="butt" d="m93.24672 49.052494l144.40945 0" fill-rule="evenodd"/><path fill="#000000" stroke="#000000" stroke-width="4.0" stroke-linecap="butt" d="m237.65617 55.659424l18.15239 -6.60693l-18.15239 -6.60693z" fill-rule="evenodd"/></g></svg>